<?xml version="1.0" encoding="UTF-8" standalone="no"?>
<!-- Created with Inkscape (http://www.inkscape.org/) -->

<svg
   xmlns:dc="http://purl.org/dc/elements/1.1/"
   xmlns:cc="http://creativecommons.org/ns#"
   xmlns:rdf="http://www.w3.org/1999/02/22-rdf-syntax-ns#"
   xmlns:svg="http://www.w3.org/2000/svg"
   xmlns="http://www.w3.org/2000/svg"
   xmlns:sodipodi="http://sodipodi.sourceforge.net/DTD/sodipodi-0.dtd"
   xmlns:inkscape="http://www.inkscape.org/namespaces/inkscape"
   version="1.0"
   width="800"
   height="600"
   id="svg2"
   sodipodi:version="0.32"
   inkscape:version="0.92.1 r15371"
   sodipodi:docname="x2gobg.svg"
   inkscape:output_extension="org.inkscape.output.svg.inkscape">
  <metadata
     id="metadata45">
    <rdf:RDF>
      <cc:Work
         rdf:about="">
        <dc:format>image/svg+xml</dc:format>
        <dc:type
           rdf:resource="http://purl.org/dc/dcmitype/StillImage" />
        <dc:title></dc:title>
      </cc:Work>
    </rdf:RDF>
  </metadata>
  <sodipodi:namedview
     inkscape:window-height="1058"
     inkscape:window-width="2560"
     inkscape:pageshadow="2"
     inkscape:pageopacity="0"
     guidetolerance="10.0"
     gridtolerance="10.0"
     objecttolerance="10.0"
     borderopacity="1.0"
     bordercolor="#666666"
     pagecolor="#ffffff"
     id="base"
     showgrid="false"
     inkscape:zoom="0.59369593"
     inkscape:cx="-245.73393"
     inkscape:cy="453.71745"
     inkscape:window-x="0"
     inkscape:window-y="0"
     inkscape:current-layer="svg2"
     inkscape:window-maximized="1" />
  <defs
     id="defs85">
    <inkscape:perspective
       sodipodi:type="inkscape:persp3d"
       inkscape:vp_x="0 : 64 : 1"
       inkscape:vp_y="0 : 1000 : 0"
       inkscape:vp_z="128 : 64 : 1"
       inkscape:persp3d-origin="64 : 42.666667 : 1"
       id="perspective47" />
  </defs>
  <rect
     style="fill:#000000;fill-opacity:1;fill-rule:nonzero;stroke:#000000;stroke-width:1.00157475;stroke-linecap:square;stroke-linejoin:round;stroke-miterlimit:4;stroke-dasharray:none;stroke-opacity:1"
     id="rect903"
     width="798.99841"
     height="598.99841"
     x="0.50078738"
     y="0.50079954" />
  <g
     id="g2420"
     transform="matrix(4.5357858,0,0,4.5357858,110,9.4194176)"
     style="fill:#ffffff;stroke-width:0.18965517">
    <g
       style="fill:#ffffff;stroke-width:0.18965517"
       id="g4"
       transform="translate(0,-924.362)">
      <path
         inkscape:connector-curvature="0"
         style="fill:#ffffff;stroke-width:0.18965517"
         id="path6"
         d="m 90,977.626 13.32,-25.776 c 0.936,-2.52 1.368,-4.32 1.368,-5.256 0,-1.512 -0.504,-2.664 -1.44,-3.312 -1.008,-0.72 -2.736,-1.08 -5.184,-1.08 v -2.376 h 22.104 v 2.376 c -3.024,0 -5.184,0.648 -6.696,1.944 -1.512,1.296 -3.6,4.752 -6.48,10.368 l -14.616,28.44 18.432,41.544 c 1.872,3.888 3.528,6.624 4.968,8.136 1.44,1.44 3.168,2.232 5.112,2.232 v 2.304 H 94.536 v -2.304 c 2.376,0 4.032,-0.288 5.04,-0.936 1.008,-0.576 1.512,-1.584 1.512,-2.88 0,-1.224 -0.72,-3.384 -2.016,-6.552 l -12.96,-29.016 -14.832,29.016 c -1.368,2.448 -2.088,4.464 -2.088,5.976 0,2.952 2.16,4.392 6.48,4.392 v 2.304 H 55.728 v -2.304 c 1.944,0 3.672,-0.648 5.112,-1.872 1.44,-1.224 2.952,-3.312 4.392,-6.408 L 83.736,990.01 67.248,952.498 c -1.728,-4.032 -3.312,-6.696 -4.824,-8.136 -1.584,-1.44 -3.816,-2.16 -6.696,-2.16 v -2.376 h 28.296 v 2.376 c -4.392,0 -6.624,1.512 -6.624,4.536 0,1.512 0.432,3.24 1.296,5.112 z" />
    </g>
    <g
       style="fill:#ffffff;stroke-width:0.18965517"
       id="g8"
       transform="translate(0,-924.362)">
      <path
         inkscape:connector-curvature="0"
         style="fill:#ffffff;stroke-width:0.18965517"
         id="path10"
         d="m 6.984,940.474 43.992,-1.224 v 2.448 z" />
    </g>
    <g
       style="fill:#ffffff;stroke-width:0.18965517"
       id="g12"
       transform="translate(0,-924.362)">
      <path
         inkscape:connector-curvature="0"
         style="fill:#ffffff;stroke-width:0.18965517"
         id="path14"
         d="m 6.984,946.45 43.992,-1.152 v 1.656 l 5.184,0.072 h 0.36 0.288 l 0.288,0.072 h 0.288 l 0.288,0.072 0.216,0.072 0.216,0.072 0.216,0.072 0.144,0.072 0.144,0.072 0.144,0.072 0.144,0.072 0.072,0.072 0.144,0.072 v 0.072 h 0.072 z" />
    </g>
    <g
       style="fill:#ffffff;stroke-width:0.18965517"
       id="g16"
       transform="translate(0,-924.362)">
      <path
         inkscape:connector-curvature="0"
         style="fill:#ffffff;stroke-width:0.18965517"
         id="path18"
         d="m 6.984,952.498 54.288,-1.512 0.216,0.36 0.288,0.576 0.288,0.576 0.288,0.648 0.288,0.648 0.144,0.216 z" />
    </g>
    <g
       style="fill:#ffffff;stroke-width:0.18965517"
       id="g20"
       transform="translate(0,-924.362)">
      <path
         inkscape:connector-curvature="0"
         style="fill:#ffffff;stroke-width:0.18965517"
         id="path22"
         d="m 6.984,958.474 56.952,-1.584 1.44,3.168 z" />
    </g>
    <g
       style="fill:#ffffff;stroke-width:0.18965517"
       id="g24"
       transform="translate(0,-924.362)">
      <path
         inkscape:connector-curvature="0"
         style="fill:#ffffff;stroke-width:0.18965517"
         id="path26"
         d="m 6.984,964.45 59.544,-1.584 1.44,3.24 z" />
    </g>
    <g
       style="fill:#ffffff;stroke-width:0.18965517"
       id="g28"
       transform="translate(0,-924.362)">
      <path
         inkscape:connector-curvature="0"
         style="fill:#ffffff;stroke-width:0.18965517"
         id="path30"
         d="m 6.984,970.498 62.136,-1.728 1.512,3.456 z" />
    </g>
    <g
       style="fill:#ffffff;stroke-width:0.18965517"
       id="g32"
       transform="translate(0,-924.362)">
      <path
         inkscape:connector-curvature="0"
         style="fill:#ffffff;stroke-width:0.18965517"
         id="path34"
         d="m 6.984,976.474 64.728,-1.8 1.584,3.6 z" />
    </g>
    <g
       style="fill:#ffffff;stroke-width:0.18965517"
       id="g36"
       transform="translate(0,-924.362)">
      <path
         inkscape:connector-curvature="0"
         style="fill:#ffffff;stroke-width:0.18965517"
         id="path38"
         d="m 6.984,982.45 67.32,-1.8 1.656,3.672 z" />
    </g>
    <g
       style="fill:#ffffff;stroke-width:0.18965517"
       id="g40"
       transform="translate(0,-924.362)">
      <path
         inkscape:connector-curvature="0"
         style="fill:#ffffff;stroke-width:0.18965517"
         id="path42"
         d="m 6.984,988.426 69.912,-1.872 1.512,3.312 -0.216,0.504 z" />
    </g>
    <g
       style="fill:#ffffff;stroke-width:0.18965517"
       id="g44"
       transform="translate(0,-924.362)">
      <path
         inkscape:connector-curvature="0"
         style="fill:#ffffff;stroke-width:0.18965517"
         id="path46"
         d="m 6.984,994.402 70.128,-1.944 -1.944,3.816 z" />
    </g>
    <g
       style="fill:#ffffff;stroke-width:0.18965517"
       id="g48"
       transform="translate(0,-924.362)">
      <path
         inkscape:connector-curvature="0"
         style="fill:#ffffff;stroke-width:0.18965517"
         id="path50"
         d="m 6.984,1000.378 67.032,-1.8 -1.8,3.6 z" />
    </g>
    <g
       style="fill:#ffffff;stroke-width:0.18965517"
       id="g52"
       transform="translate(0,-924.362)">
      <path
         inkscape:connector-curvature="0"
         style="fill:#ffffff;stroke-width:0.18965517"
         id="path54"
         d="m 6.984,1006.354 63.936,-1.728 -1.728,3.456 z" />
    </g>
    <g
       style="fill:#ffffff;stroke-width:0.18965517"
       id="g56"
       transform="translate(0,-924.362)">
      <path
         inkscape:connector-curvature="0"
         style="fill:#ffffff;stroke-width:0.18965517"
         id="path58"
         d="m 6.984,1012.402 60.912,-1.656 -1.728,3.24 z" />
    </g>
    <g
       style="fill:#ffffff;stroke-width:0.18965517"
       id="g60"
       transform="translate(0,-924.362)">
      <path
         inkscape:connector-curvature="0"
         style="fill:#ffffff;stroke-width:0.18965517"
         id="path62"
         d="m 6.984,1036.378 43.992,-1.224 v 2.448 z" />
    </g>
    <g
       style="fill:#ffffff;stroke-width:0.18965517"
       id="g64"
       transform="translate(0,-924.362)">
      <path
         inkscape:connector-curvature="0"
         style="fill:#ffffff;stroke-width:0.18965517"
         id="path66"
         d="m 6.984,1030.402 51.12,-1.44 -0.072,0.144 -0.144,0.072 -0.144,0.144 -0.144,0.072 -0.072,0.144 -0.144,0.072 -0.072,0.072 h -0.144 l -0.144,0.072 -0.072,0.072 -0.144,0.072 h -0.072 l -0.144,0.072 h -0.144 -0.072 l -0.144,0.072 h -0.144 -0.144 l -4.968,0.072 v 1.44 z" />
    </g>
    <g
       style="fill:#ffffff;stroke-width:0.18965517"
       id="g68"
       transform="translate(0,-924.362)">
      <path
         inkscape:connector-curvature="0"
         style="fill:#ffffff;stroke-width:0.18965517"
         id="path70"
         d="m 6.984,1024.354 54.792,-1.44 -0.792,1.584 -0.288,0.504 -0.216,0.504 -0.216,0.36 z" />
    </g>
    <g
       style="fill:#ffffff;stroke-width:0.18965517"
       id="g72"
       transform="translate(0,-924.362)">
      <path
         inkscape:connector-curvature="0"
         style="fill:#ffffff;stroke-width:0.18965517"
         id="path74"
         d="m 6.984,1018.378 57.816,-1.584 -1.512,3.096 z" />
    </g>
    <g
       style="fill:#ffffff;stroke-width:0.18965517"
       id="g76"
       transform="translate(0,-924.362)">
      <path
         inkscape:connector-curvature="0"
         style="fill:#ffffff;stroke-width:0.18965517"
         id="path78"
         d="m 63.936,924.49 h 54.936 c 4.968,0 9,4.032 9,9 v 109.872 c 0,4.968 -4.032,9 -9,9 H 63.936 v -1.944 h 53.928 c 4.392,0 7.992,-3.6 7.992,-7.992 V 934.498 c 0,-4.392 -3.6,-7.992 -7.992,-7.992 H 63.936 Z" />
    </g>
    <g
       style="fill:#ffffff;stroke-width:0.18965517"
       id="g80"
       transform="translate(0,-924.362)">
      <path
         inkscape:connector-curvature="0"
         style="fill:#ffffff;stroke-width:0.18965517"
         id="path82"
         d="m 9,924.49 h 54.936 v 2.016 h -54 c -4.392,0 -7.992,3.6 -7.992,7.992 v 107.928 c 0,4.392 3.6,7.992 7.992,7.992 h 54 v 1.944 H 9 c -4.968,0 -9,-4.032 -9,-9 V 933.49 c 0,-4.968 4.032,-9 9,-9 z" />
    </g>
  </g>
</svg>
